<svg width="48" height="48" viewBox="0 0 48 48" fill="none" xmlns="http://www.w3.org/2000/svg">
<path d="M0 0H48V48H0V0Z" fill="black"/>
<path d="M48 0H0V48L48 0Z" fill="#FAE403"/>
<path d="M24.1782 42.5889C19.0854 42.5889 14.8074 40.8064 11.3443 37.2414C7.88116 33.6764 6.1496 29.2966 6.1496 24.1019C6.1496 18.6016 7.79628 14.1199 11.0897 10.6568C14.417 7.15967 18.7289 5.41113 24.0255 5.41113C29.1183 5.41113 33.3623 7.22758 36.7576 10.8605C40.1528 14.4594 41.8504 18.9072 41.8504 24.2037C41.8504 29.5342 40.1528 33.931 36.7576 37.3942C33.3963 40.8573 29.2032 42.5889 24.1782 42.5889ZM26.3172 39.2785C28.6599 39.2785 30.5443 38.4127 31.9703 36.6812C33.3963 34.9496 34.1093 32.7427 34.1093 30.0605C34.1093 26.7332 33.5491 23.4398 32.4286 20.1804C31.3082 16.887 29.7464 14.1538 27.7432 11.9809C25.7401 9.80795 23.5841 8.72148 21.2753 8.72148C18.9326 8.72148 17.0652 9.57028 15.6732 11.2679C14.3151 12.9655 13.6361 15.2233 13.6361 18.0414C13.6361 21.5045 14.1793 24.8658 15.2658 28.1252C16.3862 31.3846 17.931 34.0668 19.9003 36.1719C21.8695 38.243 24.0085 39.2785 26.3172 39.2785Z" fill="white"/>
</svg>
