<svg width="50" height="50" viewBox="0 0 50 50" fill="none" xmlns="http://www.w3.org/2000/svg">
<g clip-path="url(#clip0_145_1477)">
<rect x="1" y="1" width="48" height="48" rx="8" fill="white"/>
<path d="M1 1H49V49H1V1Z" fill="black"/>
<path d="M51.8606 1H1V51.8606L51.8606 1Z" fill="#FAE403"/>
<path d="M24.7532 44C22.2674 44 19.8913 43.5703 17.6248 42.7109C15.3583 41.8142 13.3478 40.5624 11.5931 38.9558C9.87494 37.3117 8.50409 35.3687 7.48052 33.1268C6.49351 30.8476 6 28.3255 6 25.5605C6 23.0197 6.40212 20.591 7.20635 18.2743C8.04714 15.9204 9.27176 13.8279 10.8802 11.997C12.5253 10.1662 14.5358 8.70895 16.912 7.62537C19.3247 6.54179 22.1029 6 25.2468 6C27.7326 6 30.0904 6.44838 32.3203 7.34513C34.5868 8.20452 36.5974 9.45624 38.3521 11.1003C40.1068 12.707 41.4776 14.65 42.4646 16.9292C43.4882 19.1711 44 21.6745 44 24.4395C44 26.943 43.5796 29.3717 42.7388 31.7257C41.9346 34.0796 40.71 36.1721 39.0649 38.003C37.4565 39.8338 35.4459 41.2911 33.0332 42.3746C30.657 43.4582 27.8971 44 24.7532 44ZM25.6854 41.5339C27.9885 41.5339 29.9076 40.9361 31.443 39.7404C33.0149 38.5447 34.1847 36.882 34.9524 34.7522C35.7566 32.5851 36.1587 30.1003 36.1587 27.2979C36.1587 24.9066 35.9211 22.59 35.4459 20.3481C34.9707 18.1062 34.2395 16.1072 33.2525 14.351C32.2655 12.5575 31.0226 11.1377 29.5238 10.0914C28.0616 9.04523 26.3069 8.52212 24.2597 8.52212C21.9567 8.52212 20.0192 9.11996 18.4473 10.3156C16.912 11.5113 15.7605 13.174 14.9928 15.3038C14.2251 17.4336 13.8413 19.8997 13.8413 22.7021C13.8413 25.0934 14.0789 27.41 14.5541 29.6519C15.0293 31.8938 15.7422 33.9115 16.6926 35.705C17.6797 37.4985 18.9043 38.9184 20.3665 39.9646C21.8653 41.0108 23.6383 41.5339 25.6854 41.5339Z" fill="white"/>
</g>
<rect x="1" y="1" width="48" height="48" rx="8" stroke="white" stroke-width="2"/>
<defs>
<clipPath id="clip0_145_1477">
<rect x="1" y="1" width="48" height="48" rx="8" fill="white"/>
</clipPath>
</defs>
</svg>
